<svg xmlns="http://www.w3.org/2000/svg"  viewBox="0 0 72 72" width="64px" height="64px"><path d="M 23.75 17 C 12.722 17 3.75 25.972 3.75 37 C 3.75 48.028 12.722 57 23.75 57 C 28.534732 57 32.929184 55.30714 36.375 52.494141 C 39.820816 55.30714 44.215268 57 49 57 C 60.028 57 69 48.028 69 37 C 69 25.972 60.028 17 49 17 C 44.215268 17 39.820816 18.69286 36.375 21.505859 C 32.929184 18.69286 28.534732 17 23.75 17 z M 21.869141 23.658203 L 21.869141 35.400391 C 21.869141 38.990516 18.418309 44.062748 14.960938 46.917969 C 12.379814 44.449199 10.75 40.922762 10.75 37 C 10.75 30.220741 15.591185 24.609307 21.869141 23.658203 z M 47.119141 23.658203 L 47.119141 35.400391 C 47.119141 38.391156 44.719691 42.396036 41.921875 45.304688 C 43.084444 42.771452 43.75 39.964832 43.75 37 C 43.75 33.169808 42.648231 29.601059 40.773438 26.556641 C 42.555981 25.039399 44.734885 24.019415 47.119141 23.658203 z M 26.132812 23.738281 C 28.321238 24.161446 30.319457 25.146168 31.976562 26.556641 C 30.101769 29.601059 29 33.169808 29 37 C 29 39.574514 29.506529 42.028599 30.396484 44.291016 C 27.959452 41.529525 26.133477 38.043401 26.132812 35.630859 L 26.132812 23.738281 z M 51.382812 23.738281 C 57.415661 24.904822 62 30.401919 62 37 C 62 40.770047 60.499521 44.179236 58.091797 46.630859 C 54.534458 43.840592 51.383687 38.803594 51.382812 35.630859 L 51.382812 23.738281 z M 36.375 33.835938 C 36.61157 34.852976 36.75 35.908573 36.75 37 C 36.75 38.091427 36.61157 39.147024 36.375 40.164062 C 36.13843 39.147024 36 38.091427 36 37 C 36 35.908573 36.13843 34.852976 36.375 33.835938 z M 23.984375 42.560547 C 25.39746 45.10922 27.264917 47.4152 29.283203 49.199219 C 27.601558 50.025342 25.730437 50.5 23.75 50.5 C 21.920128 50.5 20.180549 50.100347 18.599609 49.388672 C 20.658616 47.502365 22.592064 45.099223 23.984375 42.560547 z M 49.234375 42.560547 C 50.64746 45.10922 52.514917 47.4152 54.533203 49.199219 C 52.851558 50.025342 50.980437 50.5 49 50.5 C 47.170128 50.5 45.430549 50.100347 43.849609 49.388672 C 45.908616 47.502365 47.842064 45.099223 49.234375 42.560547 z"/></svg>