<svg xmlns="http://www.w3.org/2000/svg" version="1.1" xmlns:xlink="http://www.w3.org/1999/xlink" xmlns:svgjs="http://svgjs.dev/svgjs" width="2000" height="2000" viewBox="0 0 2000 2000"><g transform="matrix(1,0,0,1,-0.9999999999998863,-0.9999999999998863)"><svg viewBox="0 0 280 280" data-background-color="#ffffff" preserveAspectRatio="xMidYMid meet" height="2000" width="2000" xmlns="http://www.w3.org/2000/svg" xmlns:xlink="http://www.w3.org/1999/xlink"><g id="tight-bounds" transform="matrix(1,0,0,1,0.13999999999998636,0.13999999999998636)"><svg viewBox="0 0 279.72 279.72" height="279.72" width="279.72"><g><svg viewBox="0 0 279.72 279.72" height="279.72" width="279.72"><g><svg viewBox="0 0 279.72 279.72" height="279.72" width="279.72"><g id="textblocktransform"><svg viewBox="0 0 279.72 279.72" height="279.72" width="279.72" id="textblock"><g><svg viewBox="0 0 279.72 279.72" height="279.72" width="279.72"><g transform="matrix(1,0,0,1,79.56348652390118,73.92936372216631)"><svg viewBox="0 0 120.59302695219768 131.8612725556674" height="131.8612725556674" width="120.59302695219768"><g><svg xmlns="http://www.w3.org/2000/svg" xmlns:xlink="http://www.w3.org/1999/xlink" version="1.1" x="0" y="0" viewBox="12.3265 14.51615045314357 72.01111148542402 78.73984954685643" enable-background="new 0 0 100 100" xml:space="preserve" height="131.8612725556674" width="120.59302695219768" class="icon-xg-0" data-fill-palette-color="accent" id="xg-0"><g fill="#ffffff" data-fill-palette-color="accent"><g fill="#ffffff" data-fill-palette-color="accent"><path fill="#ffffff" d="M65.145 93.256H35.901c-0.221 0-0.44-0.05-0.639-0.146-8.995-4.344-15.737-12.332-18.498-21.916-0.128-0.444-0.04-0.922 0.238-1.291 0.277-0.369 0.712-0.586 1.174-0.586h64.692c0.462 0 0.896 0.217 1.175 0.586 0.277 0.369 0.365 0.847 0.237 1.291-2.762 9.585-9.504 17.573-18.497 21.916C65.584 93.206 65.366 93.256 65.145 93.256zM36.242 90.316h28.563c7.501-3.719 13.256-10.22 16.048-18.061h-60.66C22.984 80.096 28.739 86.597 36.242 90.316z" data-fill-palette-color="accent"></path></g><g fill="#ffffff" data-fill-palette-color="accent"><path fill="#ffffff" d="M65.816 84.847c-0.445 0-0.885-0.201-1.174-0.584-0.489-0.647-0.36-1.569 0.287-2.059 4.075-3.077 7.4-7.127 9.618-11.712 0.354-0.732 1.234-1.035 1.963-0.684 0.731 0.354 1.037 1.232 0.684 1.963-2.419 5.003-6.048 9.422-10.493 12.778C66.437 84.75 66.125 84.847 65.816 84.847z" data-fill-palette-color="accent"></path></g></g><g fill="#ffffff" data-fill-palette-color="accent"><path fill="#ffffff" d="M24.839 71.589c-0.376 0-0.752-0.144-1.04-0.431L12.757 60.116c-0.574-0.573-0.574-1.505 0-2.078 0.574-0.574 1.505-0.574 2.079 0L25.878 69.08c0.574 0.573 0.574 1.505 0 2.078C25.591 71.445 25.215 71.589 24.839 71.589z" data-fill-palette-color="accent"></path></g><g fill="#ffffff" data-fill-palette-color="accent"><path fill="#ffffff" d="M32.839 71.589c-0.376 0-0.752-0.144-1.04-0.431L20.757 60.116c-0.574-0.573-0.574-1.505 0-2.078 0.574-0.574 1.505-0.574 2.079 0L33.878 69.08c0.574 0.573 0.574 1.505 0 2.078C33.591 71.445 33.215 71.589 32.839 71.589z" data-fill-palette-color="accent"></path></g><g fill="#ffffff" data-fill-palette-color="accent"><path fill="#ffffff" d="M40.181 57.492c-0.299 0-0.601-0.091-0.861-0.279-1.935-1.402-3.09-3.664-3.09-6.052 0-2.369 1.141-4.622 3.053-6.025 0.654-0.48 1.574-0.339 2.055 0.314 0.48 0.654 0.34 1.574-0.314 2.055-1.178 0.865-1.854 2.197-1.854 3.656 0 1.448 0.701 2.82 1.875 3.671 0.657 0.477 0.805 1.396 0.328 2.053C41.084 57.282 40.636 57.492 40.181 57.492z" data-fill-palette-color="accent"></path></g><g fill="#ffffff" data-fill-palette-color="accent"><path fill="#ffffff" d="M57.472 57.492c-0.299 0-0.601-0.091-0.861-0.279-1.935-1.402-3.09-3.664-3.09-6.052 0-2.369 1.141-4.622 3.053-6.025 0.654-0.48 1.574-0.339 2.055 0.314 0.48 0.654 0.34 1.574-0.314 2.055-1.178 0.865-1.854 2.197-1.854 3.656 0 1.448 0.701 2.82 1.875 3.671 0.657 0.477 0.805 1.396 0.328 2.053C58.375 57.282 57.927 57.492 57.472 57.492z" data-fill-palette-color="accent"></path></g><g fill="#ffffff" data-fill-palette-color="accent"><path fill="#ffffff" d="M40.729 47.325c-0.452 0-0.897-0.207-1.186-0.6-0.48-0.654-0.34-1.574 0.314-2.055 1.178-0.865 1.854-2.197 1.854-3.656 0-1.448-0.701-2.82-1.875-3.671-0.657-0.477-0.805-1.396-0.328-2.053s1.395-0.805 2.053-0.328c1.935 1.402 3.09 3.665 3.09 6.052 0 2.369-1.141 4.622-3.053 6.025C41.337 47.232 41.031 47.325 40.729 47.325z" data-fill-palette-color="accent"></path></g><g fill="#ffffff" data-fill-palette-color="accent"><path fill="#ffffff" d="M31.394 57.492c-0.299 0-0.601-0.091-0.861-0.279-1.935-1.402-3.09-3.664-3.09-6.052 0-2.369 1.141-4.622 3.053-6.025 0.654-0.48 1.575-0.339 2.055 0.314 0.48 0.654 0.34 1.574-0.314 2.055-1.178 0.865-1.854 2.197-1.854 3.656 0 1.448 0.701 2.82 1.875 3.671 0.657 0.477 0.805 1.396 0.328 2.053C32.297 57.282 31.849 57.492 31.394 57.492z" data-fill-palette-color="accent"></path></g><g fill="#ffffff" data-fill-palette-color="accent"><path fill="#ffffff" d="M31.942 47.325c-0.452 0-0.897-0.207-1.186-0.6-0.48-0.654-0.34-1.574 0.314-2.055 1.178-0.865 1.854-2.197 1.854-3.656 0-1.448-0.701-2.82-1.875-3.671-0.657-0.477-0.805-1.396-0.328-2.053s1.395-0.805 2.053-0.328c1.935 1.402 3.09 3.665 3.09 6.052 0 2.369-1.141 4.622-3.053 6.025C32.55 47.232 32.244 47.325 31.942 47.325z" data-fill-palette-color="accent"></path></g><g fill="#ffffff" data-fill-palette-color="accent"><path fill="#ffffff" d="M65.69 57.492c-0.299 0-0.601-0.091-0.861-0.279-1.935-1.402-3.09-3.664-3.09-6.052 0-2.368 1.142-4.621 3.055-6.025 0.657-0.48 1.575-0.339 2.055 0.314 0.48 0.654 0.34 1.574-0.314 2.055-1.179 0.866-1.855 2.198-1.855 3.656 0 1.448 0.701 2.82 1.875 3.671 0.657 0.477 0.805 1.396 0.328 2.053C66.594 57.282 66.146 57.492 65.69 57.492z" data-fill-palette-color="accent"></path></g><g fill="#ffffff" data-fill-palette-color="accent"><path fill="#ffffff" d="M66.239 47.325c-0.452 0-0.897-0.207-1.186-0.6-0.48-0.654-0.34-1.574 0.314-2.055 1.179-0.866 1.855-2.198 1.855-3.656 0-1.448-0.701-2.82-1.877-3.67-0.657-0.476-0.805-1.395-0.328-2.053 0.476-0.659 1.395-0.805 2.053-0.329 1.936 1.401 3.092 3.664 3.092 6.052 0 2.368-1.142 4.621-3.055 6.025C66.846 47.232 66.541 47.325 66.239 47.325z" data-fill-palette-color="accent"></path></g><g fill="#ffffff" data-fill-palette-color="accent"><path fill="#ffffff" d="M40.181 37.326c-0.299 0-0.601-0.091-0.861-0.28-1.935-1.402-3.09-3.665-3.09-6.052 0-2.37 1.141-4.622 3.053-6.026 0.654-0.479 1.574-0.338 2.055 0.315 0.48 0.654 0.34 1.575-0.314 2.055-1.178 0.865-1.854 2.197-1.854 3.656 0 1.448 0.701 2.82 1.875 3.671 0.657 0.477 0.805 1.396 0.328 2.053C41.084 37.115 40.636 37.326 40.181 37.326z" data-fill-palette-color="accent"></path></g><g fill="#ffffff" data-fill-palette-color="accent"><path fill="#ffffff" d="M48.556 57.492c-0.299 0-0.601-0.091-0.861-0.279-1.935-1.402-3.09-3.664-3.09-6.052 0-2.369 1.141-4.622 3.053-6.025 0.654-0.48 1.574-0.339 2.055 0.314 0.48 0.654 0.34 1.574-0.314 2.055-1.178 0.865-1.854 2.197-1.854 3.656 0 1.448 0.701 2.82 1.875 3.671 0.657 0.477 0.805 1.396 0.328 2.053C49.459 57.282 49.011 57.492 48.556 57.492z" data-fill-palette-color="accent"></path></g><g fill="#ffffff" data-fill-palette-color="accent"><path fill="#ffffff" d="M49.104 47.325c-0.452 0-0.897-0.207-1.186-0.6-0.48-0.654-0.34-1.574 0.314-2.055 1.178-0.865 1.854-2.197 1.854-3.656 0-1.448-0.701-2.82-1.875-3.671-0.657-0.477-0.805-1.396-0.328-2.053s1.394-0.805 2.053-0.328c1.935 1.402 3.09 3.665 3.09 6.052 0 2.369-1.141 4.622-3.053 6.025C49.712 47.232 49.406 47.325 49.104 47.325z" data-fill-palette-color="accent"></path></g><g fill="#ffffff" data-fill-palette-color="accent"><path fill="#ffffff" d="M48.556 37.326c-0.299 0-0.601-0.091-0.861-0.28-1.935-1.402-3.09-3.665-3.09-6.052 0-2.37 1.141-4.622 3.053-6.026 0.654-0.479 1.574-0.338 2.055 0.315 0.48 0.654 0.34 1.575-0.314 2.055-1.178 0.865-1.854 2.197-1.854 3.656 0 1.448 0.701 2.82 1.875 3.671 0.657 0.477 0.805 1.396 0.328 2.053C49.459 37.115 49.011 37.326 48.556 37.326z" data-fill-palette-color="accent"></path></g><g fill="#ffffff" data-fill-palette-color="accent"><path fill="#ffffff" d="M40.729 27.159c-0.452 0-0.897-0.208-1.186-0.6-0.48-0.654-0.34-1.575 0.314-2.055 1.178-0.865 1.854-2.197 1.854-3.656 0-1.448-0.701-2.82-1.875-3.671-0.657-0.477-0.805-1.396-0.328-2.053 0.477-0.657 1.395-0.805 2.053-0.328 1.935 1.402 3.09 3.665 3.09 6.052 0 2.37-1.141 4.622-3.053 6.026C41.337 27.066 41.031 27.159 40.729 27.159z" data-fill-palette-color="accent"></path></g><g fill="#ffffff" data-fill-palette-color="accent"><path fill="#ffffff" d="M56.499 37.326c-0.299 0-0.601-0.091-0.861-0.279-1.936-1.401-3.092-3.664-3.092-6.052 0-2.369 1.142-4.621 3.055-6.026 0.656-0.479 1.575-0.338 2.055 0.315 0.48 0.654 0.34 1.575-0.314 2.055-1.179 0.865-1.855 2.198-1.855 3.656 0 1.448 0.701 2.82 1.877 3.67 0.657 0.476 0.805 1.395 0.328 2.053C57.403 37.115 56.954 37.326 56.499 37.326z" data-fill-palette-color="accent"></path></g><g fill="#ffffff" data-fill-palette-color="accent"><path fill="#ffffff" d="M57.046 27.159c-0.452 0-0.897-0.208-1.186-0.6-0.48-0.654-0.34-1.575 0.314-2.055 1.179-0.865 1.855-2.198 1.855-3.656 0-1.448-0.701-2.82-1.877-3.67-0.657-0.476-0.805-1.395-0.328-2.053 0.476-0.659 1.395-0.805 2.053-0.329 1.936 1.401 3.092 3.664 3.092 6.052 0 2.369-1.142 4.621-3.055 6.026C57.652 27.066 57.348 27.159 57.046 27.159z" data-fill-palette-color="accent"></path></g></svg></g></svg></g><g><path d="M27.214 111.969v0l-1.864-1.192c1.853-1.732 3.122-3.619 3.807-5.659v0c0.489-1.457 0.609-2.803 0.361-4.04-0.251-1.23-1.045-2.07-2.382-2.519v0c-1.187-0.398-2.42-0.327-3.699 0.216-1.281 0.548-2.506 1.314-3.674 2.298-1.169 0.984-2.353 1.963-3.554 2.936-1.209 0.978-2.537 1.709-3.985 2.194-1.448 0.485-2.876 0.491-4.282 0.019v0c-1.727-0.58-3.092-1.726-4.096-3.44-1.004-1.713-1.212-3.446-0.623-5.198v0c0.449-1.337 1.215-2.736 2.299-4.195 1.084-1.46 2.08-2.659 2.989-3.597v0l1.315 0.923c-1.88 2.457-3.137 4.631-3.772 6.52v0c-0.392 1.168-0.351 2.293 0.125 3.375 0.477 1.076 1.309 1.812 2.496 2.211v0c0.904 0.304 1.797 0.348 2.68 0.134 0.884-0.22 1.718-0.611 2.5-1.172 0.782-0.562 1.581-1.212 2.395-1.952 0.814-0.74 1.664-1.46 2.549-2.163 0.885-0.702 1.792-1.309 2.719-1.822 0.933-0.511 1.993-0.826 3.178-0.946 1.19-0.111 2.428 0.05 3.716 0.483v0c1.821 0.611 3.114 1.692 3.879 3.241 0.757 1.554 0.821 3.266 0.193 5.137v0c-0.538 1.601-1.334 3.234-2.389 4.899-1.059 1.657-2.02 2.759-2.881 3.309z" fill="#ffffff" data-fill-palette-color="primary"></path><path d="M59.218 25.142v0l1.511-1.71c2.536 2.609 5.785 6.443 9.745 11.504 3.951 5.059 6.6 8.379 7.947 9.96v0c0.298 0.77 0.18 1.357-0.354 1.759v0c-0.37 0.279-0.838 0.39-1.402 0.335-0.57-0.052-1.058-0.26-1.466-0.625v0c-0.537-0.757-1.452-1.995-2.747-3.715v0l-4.554-6.048c-0.434 0.36-1.028 0.882-1.781 1.566-0.758 0.678-1.451 1.288-2.081 1.828-0.635 0.544-1.249 1.04-1.841 1.486v0c-0.534 0.402-0.931 0.685-1.191 0.846v0c0.977 1.221 2.377 2.932 4.2 5.133 1.822 2.21 3.076 3.728 3.765 4.553v0c0.293 0.774 0.172 1.363-0.363 1.765v0c-0.365 0.275-0.832 0.386-1.402 0.335-0.57-0.052-1.056-0.262-1.457-0.632v0c-1.269-1.806-3.789-5.268-7.561-10.387-3.768-5.114-6.513-8.963-8.235-11.547v0l1.614-0.73c0.044 0.058 0.121 0.149 0.231 0.274 0.11 0.124 0.197 0.229 0.261 0.313v0c4.058 4.838 6.586 7.876 7.584 9.114v0c0.645-0.585 1.334-1.212 2.067-1.88 0.737-0.662 1.545-1.4 2.426-2.212 0.885-0.807 1.578-1.433 2.081-1.878v0c0.016-0.012-0.052-0.118-0.203-0.319-0.155-0.206-0.776-1.041-1.861-2.504-1.081-1.458-2.725-3.652-4.933-6.584z" fill="#ffffff" data-fill-palette-color="primary"></path><path d="M137.39 0v0l2.922 0.161c0.752 3.172 2.267 7.649 4.547 13.43 2.286 5.788 3.801 10.112 4.543 12.973v0c0.007 0.742-0.114 1.299-0.361 1.673-0.255 0.373-0.574 0.562-0.959 0.565v0c-0.331 0.003-0.647-0.126-0.947-0.388-0.294-0.269-0.496-0.644-0.607-1.127v0c-0.242-1.13-1.005-3.379-2.289-6.745v0c-5.285-0.619-8.607-0.999-9.966-1.138v0c-0.329 0.924-0.726 2.428-1.19 4.512-0.471 2.078-0.841 3.515-1.112 4.312v0c-0.38 0.467-0.815 0.703-1.305 0.708v0c-0.536 0.005-0.999-0.229-1.387-0.703-0.389-0.473-0.586-1.054-0.593-1.743v0c0.793-3.008 2.239-7.43 4.337-13.265 2.098-5.835 3.554-10.244 4.367-13.225zM138.777 3.872v0c-0.488 3.104-1.869 7.665-4.144 13.68v0l4.312-0.04c1.947-0.018 3.574 0.033 4.88 0.153v0c-2.689-5.638-4.372-10.236-5.048-13.793z" fill="#ffffff" data-fill-palette-color="primary"></path><path d="M227.225 32.441v0l-2.27 0.588c-0.807-2.36-2.014-4.091-3.62-5.192v0c-1.054-0.723-2.138-1.092-3.251-1.109-1.108-0.013-2.103 0.204-2.988 0.65-0.882 0.455-1.812 1.155-2.788 2.1-0.971 0.948-1.76 1.805-2.365 2.571-0.605 0.766-1.279 1.689-2.02 2.771v0c-0.723 1.054-1.348 2.388-1.876 4.001-0.53 1.604-0.726 3.308-0.59 5.113 0.131 1.8 0.808 3.12 2.032 3.959v0c1.333 0.914 3.851 1.616 7.554 2.107v0c0 0.586-0.095 1.497-0.284 2.732v0c-3.928 0.013-6.938-0.697-9.03-2.131v0c-1.355-0.929-2.309-2.19-2.864-3.782-0.554-1.593-0.719-3.244-0.495-4.953 0.224-1.709 0.635-3.375 1.233-4.997 0.607-1.624 1.338-3.058 2.192-4.304v0c0.944-1.377 1.965-2.644 3.064-3.801 1.104-1.154 2.358-2.21 3.761-3.168 1.407-0.963 2.896-1.496 4.469-1.598 1.578-0.099 3.074 0.337 4.488 1.307v0c1.229 0.843 2.352 1.922 3.37 3.237 1.023 1.319 1.782 2.619 2.278 3.899z" fill="#ffffff" data-fill-palette-color="primary"></path><path d="M250.771 112.317v0l-1.154-3.186c0.461-1.062 1.011-2.216 1.651-3.462 0.636-1.238 1.191-2.263 1.665-3.076 0.467-0.81 1.14-1.938 2.018-3.383 0.882-1.454 1.502-2.475 1.86-3.062v0l-9.592 4.004c-0.801 0.044-1.316-0.249-1.544-0.878v0c-0.156-0.43-0.131-0.907 0.073-1.432 0.204-0.525 0.545-0.927 1.022-1.205v0c1.949-0.629 5.968-2.018 12.058-4.168 6.09-2.15 10.61-3.664 13.56-4.543v0l0.234 1.754c-1.183 0.506-3.245 1.348-6.186 2.526-2.943 1.172-4.897 1.961-5.863 2.367v0c0.653 0.228 1.865 0.656 3.635 1.283 1.764 0.629 2.97 1.062 3.62 1.299 0.645 0.245 1.585 0.602 2.818 1.071 1.231 0.463 2.319 0.907 3.262 1.333 0.941 0.42 1.913 0.885 2.915 1.395v0l-1.373 1.723c-1.765-0.34-7.08-2.218-15.947-5.634v0c-0.584 1.17-2.022 3.663-4.317 7.482-2.302 3.814-3.774 6.412-4.415 7.792z" fill="#ffffff" data-fill-palette-color="primary"></path><path d="M37.267 172.218l4.545 13.931-4.026 0.729-2.69-8.246-8.048 2.625 2.345 7.188-3.816 1.245-2.345-7.188-8.444 2.755 2.863 8.775-3.901 1.272-4.545-13.932z" fill="#ffffff" data-fill-palette-color="secondary"></path><path d="M53.739 204.957c0.979 1.401 1.599 2.81 1.861 4.226 0.262 1.416 0.221 2.924-0.125 4.523v0l-3.823-0.408c0.147-1.177 0.143-2.225-0.013-3.141-0.156-0.917-0.503-1.761-1.042-2.533v0c-0.618-0.885-1.382-1.394-2.291-1.526-0.905-0.127-1.8 0.118-2.685 0.736v0c-0.885 0.618-1.424 1.391-1.617 2.317-0.184 0.928-0.034 2.387 0.451 4.375v0c0.589 2.578 0.665 4.722 0.228 6.434-0.437 1.711-1.66 3.268-3.669 4.671v0c-1.379 0.963-2.853 1.525-4.423 1.684-1.575 0.163-3.1-0.117-4.574-0.84-1.475-0.723-2.758-1.867-3.851-3.431v0c-1.127-1.613-1.82-3.213-2.08-4.8-0.261-1.587-0.207-3.24 0.16-4.959v0l4.016 0.527c-0.161 1.365-0.171 2.572-0.029 3.62 0.142 1.048 0.532 2.028 1.169 2.94v0c0.747 1.07 1.661 1.672 2.74 1.807 1.085 0.131 2.2-0.204 3.347-1.005v0c0.999-0.698 1.638-1.536 1.916-2.514 0.273-0.974 0.181-2.36-0.276-4.158v0c-0.639-2.753-0.729-4.993-0.27-6.719 0.464-1.73 1.535-3.181 3.213-4.353v0c1.287-0.899 2.649-1.39 4.086-1.473 1.437-0.083 2.824 0.225 4.16 0.924 1.336 0.699 2.477 1.724 3.421 3.076z" fill="#ffffff" data-fill-palette-color="secondary"></path><path d="M66.892 221.531l14.419 11.462-3.132 2.967-4.745-3.771-15.709 19.761-4.246-3.375 15.709-19.762-4.954-3.938z" fill="#ffffff" data-fill-palette-color="secondary"></path><path d="M99.489 242.108c2.293 0.937 4.134 2.097 5.522 3.48 1.388 1.383 2.198 3.281 2.428 5.693 0.228 2.419-0.401 5.446-1.886 9.082v0c-2.102 5.144-4.588 8.314-7.46 9.509-2.877 1.193-5.962 1.116-9.254-0.229v0l-6.604-2.698 11.165-27.325zM98.71 246.169l-1.821-0.744-8.099 19.819 1.858 0.759c1.189 0.486 2.3 0.614 3.331 0.385 1.029-0.224 2.075-0.98 3.138-2.27 1.064-1.29 2.134-3.253 3.212-5.89v0c1.097-2.686 1.694-4.838 1.791-6.459 0.091-1.623-0.165-2.844-0.768-3.662-0.603-0.819-1.484-1.465-2.642-1.938z" fill="#ffffff" data-fill-palette-color="secondary"></path><path d="M152.217 249.825c1.664-0.194 3.145-0.024 4.44 0.512 1.296 0.535 2.326 1.355 3.089 2.46 0.755 1.099 1.219 2.385 1.391 3.858v0c0.191 1.638 0.09 3.227-0.304 4.767-0.394 1.533-1.146 3.318-2.255 5.355-1.109 2.037-2.783 4.75-5.021 8.138v0l10.095-1.179-0.067 4.219-15.108 1.765-0.451-3.858c2.393-3.834 4.149-6.786 5.267-8.858 1.126-2.065 1.871-3.793 2.235-5.182 0.371-1.39 0.472-2.806 0.305-4.247v0c-0.152-1.303-0.55-2.253-1.194-2.851-0.643-0.598-1.462-0.84-2.455-0.724v0c-0.822 0.096-1.524 0.398-2.105 0.906-0.587 0.515-1.202 1.327-1.846 2.436v0l-3.371-1.976c1.647-3.313 4.099-5.16 7.355-5.541z" fill="#ffffff" data-fill-palette-color="secondary"></path><path d="M182.803 241.594c2.662-1.103 5.149-0.793 7.462 0.929 2.319 1.72 4.432 4.881 6.339 9.483v0c3.827 9.233 3.042 14.968-2.355 17.205v0c-5.446 2.257-10.082-1.231-13.909-10.465v0c-3.804-9.178-2.983-14.896 2.463-17.152zM184.325 245.265c-0.759 0.314-1.246 0.86-1.462 1.638-0.219 0.786-0.136 1.956 0.251 3.51 0.377 1.55 1.111 3.641 2.201 6.272v0c1.103 2.662 2.07 4.674 2.899 6.036 0.826 1.371 1.595 2.257 2.307 2.658 0.702 0.397 1.433 0.439 2.191 0.124v0c0.765-0.317 1.249-0.862 1.452-1.635 0.201-0.779 0.105-1.944-0.287-3.494-0.396-1.542-1.145-3.645-2.248-6.306v0c-1.101-2.656-2.054-4.662-2.86-6.02-0.815-1.361-1.569-2.246-2.262-2.655-0.69-0.402-1.418-0.445-2.182-0.128z" fill="#ffffff" data-fill-palette-color="secondary"></path><path d="M207.956 226.21c1.292-1.068 2.627-1.729 4.006-1.984 1.379-0.255 2.689-0.126 3.929 0.387 1.231 0.512 2.319 1.34 3.265 2.483v0c1.051 1.271 1.829 2.66 2.336 4.166 0.502 1.501 0.841 3.408 1.017 5.721 0.176 2.312 0.245 5.499 0.208 9.56v0l7.833-6.476 2.237 3.578-11.724 9.692-2.475-2.994c-0.075-4.519-0.206-7.951-0.392-10.298-0.177-2.346-0.491-4.201-0.94-5.565-0.444-1.369-1.128-2.612-2.053-3.73v0c-0.836-1.011-1.686-1.592-2.551-1.745-0.865-0.153-1.683 0.09-2.454 0.727v0c-0.638 0.528-1.063 1.162-1.275 1.905-0.212 0.751-0.288 1.767-0.225 3.048v0l-3.905 0.173c-0.418-3.676 0.636-6.559 3.163-8.648z" fill="#ffffff" data-fill-palette-color="secondary"></path><path d="M227.634 204.947c0.957-1.376 2.065-2.372 3.325-2.989 1.26-0.616 2.556-0.844 3.888-0.684 1.323 0.162 2.594 0.667 3.812 1.514v0c1.354 0.942 2.477 2.07 3.371 3.385 0.887 1.311 1.727 3.056 2.517 5.236 0.791 2.18 1.715 5.231 2.772 9.153v0l5.803-8.344 3.116 2.845-8.685 12.487-3.189-2.218c-1.287-4.332-2.336-7.603-3.147-9.813-0.802-2.211-1.602-3.914-2.402-5.107-0.796-1.199-1.789-2.213-2.98-3.041v0c-1.077-0.749-2.052-1.08-2.926-0.995-0.874 0.086-1.597 0.539-2.169 1.36v0c-0.473 0.68-0.711 1.405-0.715 2.177-0.003 0.781 0.198 1.78 0.602 2.997v0l-3.714 1.217c-1.391-3.428-1.151-6.488 0.721-9.18z" fill="#ffffff" data-fill-palette-color="secondary"></path><path d="M240.968 178.877c0.515-1.483 1.275-2.674 2.281-3.572 1.006-0.899 2.143-1.468 3.412-1.708 1.274-0.238 2.531-0.141 3.77 0.289v0c3.335 1.158 4.871 3.591 4.607 7.299v0c0.88-1.749 2.042-2.944 3.485-3.586 1.443-0.642 3.159-0.618 5.148 0.073v0c1.508 0.523 2.784 1.342 3.828 2.455 1.048 1.121 1.728 2.444 2.041 3.968 0.312 1.525 0.169 3.147-0.428 4.868v0c-0.552 1.589-1.359 2.876-2.423 3.86-1.066 0.99-2.43 1.8-4.093 2.428v0l-1.441-3.666c1.137-0.51 2.012-1.03 2.624-1.56 0.604-0.527 1.055-1.222 1.355-2.085v0c0.382-1.101 0.286-2.127-0.289-3.077-0.573-0.956-1.613-1.696-3.12-2.219v0c-1.589-0.552-2.855-0.592-3.798-0.119-0.948 0.47-1.666 1.406-2.152 2.807v0l-0.561 1.614-3.273-1.778 0.361-1.041c0.402-1.158 0.355-2.215-0.14-3.172-0.501-0.959-1.45-1.681-2.845-2.166v0c-1.183-0.411-2.193-0.428-3.031-0.053-0.836 0.369-1.432 1.066-1.789 2.092v0c-0.521 1.502-0.285 3.165 0.708 4.989v0l-3.388 1.674c-1.537-2.945-1.819-5.816-0.849-8.614z" fill="#ffffff" data-fill-palette-color="secondary"></path><path d="M3.785 142.913c0-6.227 5.048-11.276 11.275-11.276 6.227 0 11.276 5.048 11.276 11.276 0 6.227-5.048 11.276-11.276 11.275-6.227 0-11.276-5.048-11.275-11.275z" fill="#ffffff" data-fill-palette-color="primary"></path><path d="M253.905 142.913c0-6.227 5.048-11.276 11.275-11.276 6.227 0 11.276 5.048 11.276 11.276 0 6.227-5.048 11.276-11.276 11.275-6.227 0-11.276-5.048-11.275-11.275z" fill="#ffffff" data-fill-palette-color="primary"></path></g></svg></g></svg></g></svg></g></svg></g><defs></defs></svg><rect width="279.72" height="279.72" fill="none" stroke="none" visibility="hidden"></rect></g></svg></g></svg>